<?xml version="1.0" encoding="utf-8"?>
<!-- Generator: Adobe Illustrator 22.1.0, SVG Export Plug-In . SVG Version: 6.00 Build 0)  -->
<svg version="1.1" id="Слой_1" xmlns="http://www.w3.org/2000/svg" xmlns:xlink="http://www.w3.org/1999/xlink" x="0px" y="0px"
	 viewBox="0 0 400 400" style="enable-background:new 0 0 400 400;" xml:space="preserve">
<style type="text/css">
	.st1{fill:#6E6E6E;}
</style>
<g>
	<path class="st1" d="M190.2,362.3c6.1-38.1,12.2-76.2,18.3-114c-12.4-1.9-24.3-2.7-35.7-5.7c-44.7-11.7-74.5-55-71.5-103
		c2.9-45.5,39-84.7,83.9-90.7c69-9.3,124.7,47.2,113.2,115.9c-2.9,17.2-8.1,34.5-15.4,50.2C258.4,267.9,223.6,314.5,190.2,362.3z
		 M200.9,106.9c-22.4-0.2-40.5,17.4-41,39.8c-0.5,21.9,18,40.9,39.9,41.1c22.8,0.2,41.2-17.8,41.4-40.4
		C241.4,125.3,223.3,107.1,200.9,106.9z"/>
</g>
</svg>
