<?xml version="1.0" encoding="utf-8"?>
<!-- Generator: Adobe Illustrator 22.1.0, SVG Export Plug-In . SVG Version: 6.00 Build 0)  -->
<svg version="1.1" id="Слой_1" xmlns="http://www.w3.org/2000/svg" xmlns:xlink="http://www.w3.org/1999/xlink" x="0px" y="0px"
	 viewBox="0 0 400 400" style="enable-background:new 0 0 400 400;" xml:space="preserve">
<style type="text/css">
	.st0{fill:#FEEAA2;stroke:#A3A3A3;}
	.st1{fill:#A3A3A3;}
</style>
<g>
	<path stroke-width="8" class="st0" d="M240.6,141.2c13.9,0,26.7,0,39.7,0c25.2,0,50.4-0.2,75.6,0c24.6,0.2,40.7,17.2,41.8,41.6
		c0.8,19.1-3.1,36.3-11.1,53.6c-17.2,37.4-34,75-50.2,112.8c-8.4,19.5-22.3,28.1-43.3,27.9c-49.3-0.4-98.7-0.2-148-0.2
		c-27.9,0-42.2-14.1-42.2-41.8c0-59.2,0.2-118.2-0.2-177.4c0-14.3,4.4-25.6,14.5-35.5c36.3-35.9,72.5-72,108.4-108.4
		c5.3-5.3,9.2-5.3,15.3-2.3c22.9,11.1,31.7,29.8,24.4,54.4C257.7,90.3,249.3,114.7,240.6,141.2z"/>
	<path class="st1" d="M5,141.6c19.5,0,38.4,0,57.5,0c0,78.5,0,156.2,0,234.8c-19.3,0-38,0-57.5,0C5,298.5,5,220.3,5,141.6z"/>
</g>
</svg>
